HIERARCHY
ROOT Pelvis
{
	OFFSET 0.000000 0.000000 0.000000
	CHANNELS 6 Xposition Yposition Zposition Xrotation Yrotation Zrotation
	JOINT LeftUpLeg_virtual
	{
		OFFSET 0.000000 0.000000 0.000000
		CHANNELS 3 Xrotation Yrotation Zrotation
		JOINT LeftUpLeg
		{
			OFFSET 18.735201 -5.666702 -4.541200
			CHANNELS 3 Xrotation Yrotation Zrotation
			JOINT LeftLeg
			{
				OFFSET -0.021200 -31.938179 0.493100
				CHANNELS 3 Xrotation Yrotation Zrotation
				JOINT LeftFoot
				{
					OFFSET 0.021200 -31.938179 -4.336299
					CHANNELS 3 Xrotation Yrotation Zrotation
					JOINT LeftToeBase
					{
						OFFSET 0.943001 -26.722000 15.023500
						CHANNELS 3 Xrotation Yrotation Zrotation
						End Site
						{
							OFFSET 0 0 0
						}
					}
				}
			}
		}
	}
	JOINT RightUpLeg_virtual
	{
		OFFSET 0.000000 0.000000 0.000000
		CHANNELS 3 Xrotation Yrotation Zrotation
		JOINT RightUpLeg
		{
			OFFSET -18.735201 -5.666702 -4.541200
			CHANNELS 3 Xrotation Yrotation Zrotation
			JOINT RightLeg
			{
				OFFSET 0.018946 -31.938133 0.493100
				CHANNELS 3 Xrotation Yrotation Zrotation
				JOINT RightFoot
				{
					OFFSET -0.018946 -31.938126 -4.336299
					CHANNELS 3 Xrotation Yrotation Zrotation
					JOINT RightToeBase
					{
						OFFSET -0.943001 -26.722004 15.023500
						CHANNELS 3 Xrotation Yrotation Zrotation
						End Site
						{
							OFFSET 0 0 0
						}
					}
				}
			}
		}
	}
	JOINT Hips_virtual
	{
		OFFSET 0.000000 0.000000 0.000000
		CHANNELS 3 Xrotation Yrotation Zrotation
		JOINT Hips
		{
			OFFSET -0.000000 -0.000000 -0.000000
			CHANNELS 3 Xrotation Yrotation Zrotation
			JOINT Spine
			{
				OFFSET 0.000000 10.199997 -0.299500
				CHANNELS 3 Xrotation Yrotation Zrotation
				JOINT Spine1
				{
					OFFSET 0.000000 11.900002 -1.516600
					CHANNELS 3 Xrotation Yrotation Zrotation
					JOINT Spine2
					{
						OFFSET 0.000000 13.600006 -2.842500
						CHANNELS 3 Xrotation Yrotation Zrotation
						JOINT Neck_virtual
						{
							OFFSET 0.000000 0.000000 0.000000
							CHANNELS 3 Xrotation Yrotation Zrotation
							JOINT Neck
							{
								OFFSET 0.000000 9.624100 -2.890100
								CHANNELS 3 Xrotation Yrotation Zrotation
								JOINT Head
								{
									OFFSET 0.000000 14.068802 -1.351900
									CHANNELS 3 Xrotation Yrotation Zrotation
									End Site
									{
										OFFSET 0 0 0
									}
								}
							}
						}
						JOINT LeftShoulder_virtual
						{
							OFFSET 0.000000 0.000000 0.000000
							CHANNELS 3 Xrotation Yrotation Zrotation
							JOINT LeftShoulder
							{
								OFFSET 15.263000 10.923401 -0.547700
								CHANNELS 3 Xrotation Yrotation Zrotation
								JOINT LeftArm
								{
									OFFSET 25.438599 -2.830597 -13.032500
									CHANNELS 3 Xrotation Yrotation Zrotation
									JOINT LeftForeArm
									{
										OFFSET 29.960503 0.000000 0.000000
										CHANNELS 3 Xrotation Yrotation Zrotation
										JOINT LeftHand
										{
											OFFSET 27.849251 0.000000 0.000000
											CHANNELS 3 Xrotation Yrotation Zrotation
											End Site
											{
												OFFSET 0 0 0
											}
										}
									}
								}
							}
						}
						JOINT RightShoulder_virtual
						{
							OFFSET 0.000000 0.000000 0.000000
							CHANNELS 3 Xrotation Yrotation Zrotation
							JOINT RightShoulder
							{
								OFFSET -15.263000 10.923401 -0.547700
								CHANNELS 3 Xrotation Yrotation Zrotation
								JOINT RightArm
								{
									OFFSET -25.438599 -2.830597 -13.032500
									CHANNELS 3 Xrotation Yrotation Zrotation
									JOINT RightForeArm
									{
										OFFSET -29.960503 0.000000 0.000000
										CHANNELS 3 Xrotation Yrotation Zrotation
										JOINT RightHand
										{
											OFFSET -27.849251 0.000000 0.000000
											CHANNELS 3 Xrotation Yrotation Zrotation
											End Site
											{
												OFFSET 0 0 0
											}
										}
									}
								}
							}
						}
					}
				}
			}
		}
	}
}
MOTION
Frames: 9
Frame Time: 0.03333333
-3.655678 82.796486 1.701495 0.000000 0.000000 0.000000 0.249976 -43.167714 4.948131 -45.464973 -3.213468 19.741931 42.356735 -6.185858 -6.095518 -8.702033 -2.929786 -18.817870 0.000000 0.000000 0.000000 5.148491 -49.621942 -2.264120 -28.581767 -17.216306 -24.551526 44.364619 7.599998 -1.559421 -11.517162 4.196834 14.510950 0.000000 0.000000 0.000000 -0.604054 -27.293072 0.651935 0.055762 -31.815083 1.273656 13.672712 -1.236870 -4.980247 8.046666 0.681770 -4.013257 0.000000 0.000000 0.000000 2.997179 3.471531 -2.443497 -0.982630 3.584350 -0.050049 0.000000 0.000000 0.000000 3.714054 -0.178693 -3.606424 -1.582038 -7.294919 -7.395285 -23.095974 -1.584016 -41.536491 -3.667411 -35.542693 -3.105984 0.000000 0.000000 0.000000 4.131623 1.070228 -2.926995 1.277415 3.146966 -6.857822 -35.065805 -6.824948 40.781956 -62.144941 73.093481 59.524306 0.000000 0.000000 0.000000 
-3.651819 82.810081 1.665815 0.000000 0.000000 0.000000 0.312195 -43.261995 5.044304 -45.412261 -3.268165 19.797983 42.332775 -6.155273 -6.158060 -8.686832 -2.864817 -18.917845 0.000000 0.000000 0.000000 5.276776 -49.643915 -2.145327 -28.506051 -17.248820 -24.488755 44.444591 7.709044 -1.588380 -11.465354 4.325808 14.534477 0.000000 0.000000 0.000000 -0.673285 -27.371771 0.687998 -0.067342 -31.576501 1.224549 13.633963 -1.207852 -4.964281 8.091922 0.695028 -4.014640 0.000000 0.000000 0.000000 3.059786 3.459381 -2.478926 -0.972476 3.621885 -0.024202 0.000000 0.000000 0.000000 3.756844 -0.185558 -3.684101 -1.665679 -7.258938 -7.216826 -23.181712 -1.480987 -41.449515 -3.623489 -35.368318 -3.155670 0.000000 0.000000 0.000000 4.175287 1.109528 -2.914285 1.268689 3.117431 -6.844047 -34.977207 -7.064597 40.581630 -63.117573 72.954589 60.667106 0.000000 0.000000 0.000000 
-3.653045 82.834801 1.601407 0.000000 0.000000 0.000000 0.426306 -43.439153 5.224269 -45.320364 -3.370996 19.904614 42.283679 -6.091537 -6.273236 -8.664035 -2.736714 -19.097562 0.000000 0.000000 0.000000 5.493529 -49.685532 -1.939775 -28.387444 -17.302269 -24.381634 44.586071 7.914522 -1.635419 -11.374978 4.563973 14.590201 0.000000 0.000000 0.000000 -0.805850 -27.572625 0.759342 -0.284715 -31.116102 1.138322 13.555707 -1.142584 -4.921524 8.174821 0.720111 -4.011509 0.000000 0.000000 0.000000 3.170681 3.441319 -2.540300 -0.950094 3.689748 0.026754 0.000000 0.000000 0.000000 3.835829 -0.198364 -3.829876 -1.819315 -7.194891 -6.879691 -23.327775 -1.302480 -41.270540 -3.536469 -35.076139 -3.248090 0.000000 0.000000 0.000000 4.262799 1.187093 -2.889205 1.253299 3.094476 -6.827196 -34.886803 -7.531590 40.180886 -64.615714 72.636364 62.476908 0.000000 0.000000 0.000000 
-3.672704 82.865501 1.520810 0.000000 0.000000 0.000000 0.573001 -43.679155 5.465014 -45.212792 -3.510342 20.050925 42.211925 -5.990150 -6.425049 -8.642731 -2.548354 -19.323995 0.000000 0.000000 0.000000 5.732456 -49.745046 -1.703284 -28.279473 -17.357922 -24.263779 44.759251 8.196642 -1.683344 -11.267631 4.879968 14.692131 0.000000 0.000000 0.000000 -0.987820 -27.957501 0.864938 -0.552282 -30.464556 1.032496 13.441279 -1.032904 -4.835528 8.282581 0.754128 -3.994313 0.000000 0.000000 0.000000 3.306399 3.426984 -2.612469 -0.912803 3.776232 0.100604 0.000000 0.000000 0.000000 3.940758 -0.215467 -4.026370 -2.019095 -7.113721 -6.420056 -23.488305 -1.095841 -40.999553 -3.406241 -34.757812 -3.371996 0.000000 0.000000 0.000000 4.394206 1.300259 -2.852828 1.235917 3.134105 -6.825095 -34.927952 -8.202133 39.582917 -65.959690 72.098234 64.223784 0.000000 0.000000 0.000000 
-3.721976 82.894852 1.439445 0.000000 0.000000 0.000000 0.727160 -43.958695 5.736689 -45.117050 -3.672342 20.221513 42.129508 -5.845525 -6.596646 -8.625286 -2.302664 -19.561699 0.000000 0.000000 0.000000 5.921527 -49.824915 -1.501739 -28.237757 -17.396400 -24.177862 44.933315 8.535861 -1.715130 -11.165763 5.242427 14.854709 0.000000 0.000000 0.000000 -1.195674 -28.569479 1.003898 -0.829569 -29.663273 0.920997 13.303825 -0.877757 -4.692206 8.401332 0.793035 -3.953430 0.000000 0.000000 0.000000 3.442281 3.425455 -2.679851 -0.859157 3.869217 0.192969 0.000000 0.000000 0.000000 4.062099 -0.234822 -4.251403 -2.236692 -7.022867 -5.884095 -23.604584 -0.918054 -40.653364 -3.228828 -34.507905 -3.515418 0.000000 0.000000 0.000000 4.569133 1.444111 -2.807170 1.224720 3.289755 -6.857090 -35.220526 -9.040264 38.799255 -66.559586 71.334386 65.257670 0.000000 0.000000 0.000000 
-3.804679 82.915245 1.372280 0.000000 0.000000 0.000000 0.863233 -44.258950 6.008503 -45.057617 -3.844434 20.398674 42.059533 -5.651710 -6.774244 -8.602631 -2.002017 -19.780872 0.000000 0.000000 0.000000 6.002254 -49.933734 -1.396437 -28.303317 -17.403457 -24.167332 45.085143 8.917994 -1.718955 -11.085903 5.628631 15.088566 0.000000 0.000000 0.000000 -1.399179 -29.402725 1.174780 -1.093104 -28.764269 0.808023 13.167662 -0.687100 -4.487118 8.520168 0.832590 -3.882659 0.000000 0.000000 0.000000 3.559663 3.442388 -2.730203 -0.789830 3.959742 0.297539 0.000000 0.000000 0.000000 4.194627 -0.254297 -4.481448 -2.445364 -6.922777 -5.319604 -23.612464 -0.829149 -40.269955 -2.993007 -34.396225 -3.667757 0.000000 0.000000 0.000000 4.786567 1.611507 -2.754774 1.232024 3.595876 -6.938681 -35.820804 -9.994595 37.853120 -66.143566 70.375168 65.249883 0.000000 0.000000 0.000000 
-3.916169 82.921150 1.331733 0.000000 0.000000 0.000000 0.962596 -44.573791 6.256551 -45.049537 -4.019052 20.566441 42.031628 -5.403080 -6.948427 -8.555964 -1.648385 -19.960531 0.000000 0.000000 0.000000 5.941355 -50.085176 -1.432029 -28.493767 -17.372895 -24.267601 45.203107 9.335274 -1.689662 -11.035110 6.027029 15.398860 0.000000 0.000000 0.000000 -1.569830 -30.396968 1.373673 -1.338204 -27.830089 0.688784 13.062966 -0.479026 -4.228753 8.633544 0.869639 -3.781302 0.000000 0.000000 0.000000 3.649904 3.479533 -2.755555 -0.706885 4.043753 0.407447 0.000000 0.000000 0.000000 4.338484 -0.271741 -4.694748 -2.624467 -6.808325 -4.767088 -23.446685 -0.890101 -39.901074 -2.677390 -34.454831 -3.819048 0.000000 0.000000 0.000000 5.044669 1.794076 -2.697841 1.273730 4.063862 -7.078640 -36.702862 -10.996099 36.779032 -64.767323 69.269764 64.213183 0.000000 0.000000 0.000000 
-4.046391 82.910271 1.327978 0.000000 0.000000 0.000000 1.020501 -44.915461 6.471213 -45.094241 -4.196198 20.715045 42.072978 -5.095317 -7.113354 -8.464028 -1.244092 -20.087766 0.000000 0.000000 0.000000 5.733606 -50.294002 -1.628682 -28.803557 -17.306618 -24.498309 45.286159 9.784368 -1.627086 -11.011506 6.434483 15.786244 0.000000 0.000000 0.000000 -1.691338 -31.459066 1.591929 -1.571104 -26.929354 0.556766 13.016160 -0.272319 -3.936548 8.741185 0.902989 -3.654211 0.000000 0.000000 0.000000 3.714653 3.536140 -2.751089 -0.611999 4.121712 0.517074 0.000000 0.000000 0.000000 4.497332 -0.284843 -4.873643 -2.761558 -6.674060 -4.252295 -23.042215 -1.162097 -39.596939 -2.249059 -34.680347 -3.957097 0.000000 0.000000 0.000000 5.340208 1.983627 -2.637627 1.366956 4.687222 -7.279348 -37.773999 -11.962178 35.618661 -62.669663 68.072780 62.363247 0.000000 0.000000 0.000000 
-4.184965 82.882851 1.371115 0.000000 0.000000 0.000000 1.049477 -45.314033 6.660808 -45.178980 -4.383724 20.843770 42.200160 -4.726751 -7.265150 -8.311277 -0.792859 -20.155449 0.000000 0.000000 0.000000 5.398760 -50.572271 -1.978375 -29.210417 -17.213118 -24.858586 45.340776 10.263654 -1.533365 -11.007494 6.851696 16.248825 0.000000 0.000000 0.000000 -1.765670 -32.499181 1.815243 -1.798735 -26.125644 0.412559 13.041732 -0.080018 -3.634390 8.846134 0.933057 -3.509899 0.000000 0.000000 0.000000 3.763299 3.610482 -2.713722 -0.504993 4.196726 0.623237 0.000000 0.000000 0.000000 4.674695 -0.291309 -5.005915 -2.852716 -6.519204 -3.782458 -22.335079 -1.702998 -39.390220 -1.665237 -35.045762 -4.064742 0.000000 0.000000 0.000000 5.667934 2.172951 -2.574469 1.526149 5.447971 -7.539036 -38.909119 -12.810202 34.415322 -60.117303 66.835949 59.963638 0.000000 0.000000 0.000000 
